# xmcd
#
# Track frame offsets:
#       150
#       16038
#       29540
#       40697
#       53831
#       66697
#       78215
#       91889
#       108793
#       123511
#       140477
#       150891
#       162681
#       172381
#       187077
#       198489
#       208256
#       220430
#
# Disc length: 3084 seconds
#
# Revision: 0
# Processed by: cddbd v1.5.1PL0 Copyright (c) Steve Scherf et al.
# Submitted via: WaveLab 4.01
#
DISCID=070c0a12
DTITLE=John Barry - Instrumental Magis - Play it again
DYEAR=1900
DGENRE=
TTITLE0=This Way Mary
TTITLE1=Diamonds are forever
TTITLE2=Play it again
TTITLE3=A Doll´s House
TTITLE4=The Good Times Are Coming
TTITLE5=Follow, Follow
TTITLE6=Lolita
TTITLE7=Lonely Hearts
TTITLE8=Sail The Summer Winds
TTITLE9=Midnight Cowboy
TTITLE10=Orosn Welles´Great Mysteries
TTITLE11=Boom
TTITLE12=The Whisperers
TTITLE13=Walkabout
TTITLE14=This Way Mary (Vocal: Scott Walker)
TTITLE15=The Adventurer
TTITLE16=Billy
TTITLE17=We Have All The Time In The World
EXTD=
EXTT0=
EXTT1=
EXTT2=
EXTT3=
EXTT4=
EXTT5=
EXTT6=
EXTT7=
EXTT8=
EXTT9=
EXTT10=
EXTT11=
EXTT12=
EXTT13=
EXTT14=
EXTT15=
EXTT16=
EXTT17=
PLAYORDER=
